<svg width="18" height="22" viewBox="0 0 18 22" fill="none" xmlns="http://www.w3.org/2000/svg">
<path fill-rule="evenodd" clip-rule="evenodd" d="M4.50003 5C4.50003 2.51472 6.51474 0.5 9.00003 0.5C11.4853 0.5 13.5 2.51472 13.5 5C13.5 7.48528 11.4853 9.5 9.00003 9.5C6.51474 9.5 4.50003 7.48528 4.50003 5Z" fill="#1A3129"/>
<path fill-rule="evenodd" clip-rule="evenodd" d="M0.751272 19.1053C0.828612 14.6156 4.49201 11 9.00003 11C13.5082 11 17.1716 14.6157 17.2488 19.1056C17.2539 19.4034 17.0824 19.676 16.8117 19.8002C14.4327 20.8918 11.7865 21.5 9.00035 21.5C6.21389 21.5 3.56746 20.8917 1.18835 19.7999C0.917677 19.6757 0.746142 19.4031 0.751272 19.1053Z" fill="#1A3129"/>
</svg>
